<?xml version="1.0" encoding="iso-8859-1"?>
<!-- Generator: Adobe Illustrator 19.0.0, SVG Export Plug-In . SVG Version: 6.00 Build 0)  -->
<svg version="1.1" id="Capa_1" xmlns="http://www.w3.org/2000/svg" xmlns:xlink="http://www.w3.org/1999/xlink" x="0px" y="0px"
	 viewBox="0 0 469.996 469.996" style="enable-background:new 0 0 469.996 469.996;" xml:space="preserve">
<g>
	<path style="fill:#6F362D;" d="M319.218,114.971c4.143,0,7.5,3.358,7.5,7.5v123.935c0,4.142-3.357,7.5-7.5,7.5
		c-0.002,0-0.002,15-0.002,15c4.145,0,7.502,3.358,7.502,7.5v23.791c5.144,0.446,10.153,1.363,15,2.678V200.326
		c0-4.142,3.357-7.5,7.5-7.5s7.5,3.358,7.5,7.5v108.172c5.33,2.592,10.352,5.718,15,9.309v-57.481c0-4.142,3.357-7.5,7.5-7.5
		s7.5,3.358,7.5,7.5v72.313c9.723,12.292,16.161,27.284,17.993,43.656c11.738-3.137,24.46-5.193,38.758-5.662
		c11.336-70.262-4.519-140.871-44.928-199.464c-21.378-30.998-48.351-56.749-79.326-76.273
		C319.216,94.897,319.216,114.971,319.218,114.971z"/>
	<path style="fill:#8A6F64;" d="M226.825,279.551c-9.601,28.657-23.652,52.192-37.243,74.953
		c-18.847,31.565-36.708,61.487-38.78,100.438c100.481-1.27,148.069-27.328,190.169-50.389c16.04-8.786,31.634-17.325,49.1-23.652
		c-2.587-36.841-33.366-66.03-70.853-66.03c-4.143,0-7.5-3.358-7.5-7.5v-30.967c0-4.141,3.356-7.499,7.498-7.5v-15
		c-4.141-0.001-7.498-3.359-7.498-7.5V122.471c0-4.141,3.356-7.499,7.498-7.5V94.897c-29.256-18.441-62.081-31.328-97.173-37.774
		c-0.063-0.012-0.124-0.031-0.186-0.044c-0.152-0.032-0.304-0.066-0.453-0.107c-0.106-0.029-0.209-0.063-0.313-0.096
		c-0.124-0.04-0.247-0.081-0.369-0.128c-0.118-0.045-0.234-0.094-0.349-0.145c-0.104-0.046-0.207-0.092-0.309-0.143
		c-0.119-0.059-0.235-0.122-0.35-0.187c-0.096-0.054-0.191-0.109-0.285-0.168c-0.109-0.068-0.214-0.138-0.319-0.211
		c-0.098-0.068-0.194-0.138-0.289-0.211c-0.091-0.07-0.179-0.142-0.267-0.216c-0.102-0.086-0.202-0.175-0.3-0.267
		c-0.073-0.069-0.144-0.139-0.214-0.211c-0.102-0.104-0.201-0.21-0.297-0.321c-0.061-0.07-0.12-0.142-0.178-0.214
		c-0.093-0.115-0.183-0.232-0.27-0.354c-0.057-0.08-0.111-0.161-0.165-0.243c-0.076-0.116-0.151-0.234-0.221-0.355
		c-0.059-0.101-0.113-0.205-0.167-0.309c-0.055-0.107-0.11-0.213-0.16-0.323c-0.061-0.132-0.114-0.266-0.167-0.402
		c-0.025-0.065-0.056-0.125-0.08-0.191c-0.12-0.335-11.077-30.093-31.843-36.192v50.108c0,1.989-0.79,3.897-2.196,5.303
		l-28.961,28.962c-0.01,0.01-124.019,124.019-124.019,124.019c-4.104,4.104-6.364,9.56-6.364,15.364s2.26,11.26,6.364,15.364
		c8.471,8.472,22.256,8.472,30.727,0c0.995-0.995,2.249-1.689,3.619-2.005l93.804-21.616c1.762-0.406,3.61-0.162,5.208,0.688
		c31.269,16.642,69.123,10.979,94.191-14.089c20.487-20.487,28.313-50.553,20.423-78.466c-1.127-3.986,1.19-8.131,5.177-9.257
		c3.981-1.126,8.13,1.19,9.257,5.177c9.367,33.135,0.075,68.829-24.249,93.152c-11.607,11.607-25.668,19.832-41.177,24.212
		c-1.238,5.875-2.692,11.54-4.325,17.023c0.041,0.013,0.083,0.021,0.124,0.035C226.023,271.373,228.141,275.624,226.825,279.551z
		 M189.304,141.48h-32.262l-34.149,34.149c-1.465,1.464-3.385,2.197-5.304,2.197c-1.92,0-3.839-0.732-5.304-2.197
		c-2.929-2.929-2.929-7.678,0-10.606l36.347-36.346c1.407-1.406,3.314-2.197,5.304-2.197h35.368c4.143,0,7.5,3.358,7.5,7.5
		C196.804,138.122,193.447,141.48,189.304,141.48z"/>
	<path style="fill:#34150C;" d="M410.889,162.653C367.83,100.218,303.291,57.919,228.824,43.169C223.811,31.661,207.268,0,176.994,0
		c-4.143,0-7.5,3.358-7.5,7.5v55.586l-13.966,13.966V38.467c0-4.142-3.357-7.5-7.5-7.5s-7.5,3.358-7.5,7.5v53.585L18.71,213.87
		c-6.938,6.937-10.758,16.16-10.758,25.97c0,9.81,3.82,19.033,10.757,25.97c6.938,6.937,16.16,10.757,25.971,10.757
		c9.053,0,17.605-3.253,24.323-9.207l89.165-20.547c17.022,8.393,36.616,11.54,55.496,8.865c4.303-0.609,8.516-1.516,12.632-2.679
		c15.509-4.38,29.569-12.605,41.177-24.212c24.324-24.324,33.616-60.018,24.249-93.152c-1.127-3.987-5.275-6.303-9.257-5.177
		c-3.986,1.127-6.304,5.271-5.177,9.257c7.89,27.913,0.064,57.979-20.423,78.466c-25.068,25.068-62.923,30.73-94.191,14.089
		c-1.598-0.85-3.446-1.093-5.208-0.688l-93.804,21.616c-1.37,0.316-2.624,1.011-3.619,2.005c-8.471,8.472-22.256,8.472-30.727,0
		c-4.104-4.104-6.364-9.56-6.364-15.364s2.26-11.26,6.364-15.364l124.009-124.01c0.01-0.01,28.971-28.971,28.971-28.971
		c1.406-1.406,2.196-3.314,2.196-5.303V16.085c20.766,6.099,31.723,35.857,31.843,36.192c0.024,0.066,0.054,0.126,0.08,0.191
		c0.053,0.135,0.107,0.27,0.167,0.402c0.05,0.11,0.105,0.217,0.16,0.323c0.054,0.104,0.108,0.208,0.167,0.309
		c0.07,0.122,0.145,0.239,0.221,0.355c0.054,0.082,0.108,0.163,0.165,0.243c0.086,0.121,0.177,0.239,0.27,0.354
		c0.058,0.072,0.117,0.144,0.178,0.214c0.096,0.11,0.195,0.217,0.297,0.321c0.07,0.072,0.141,0.142,0.214,0.211
		c0.098,0.092,0.198,0.181,0.3,0.267c0.087,0.074,0.176,0.146,0.267,0.216c0.095,0.073,0.191,0.143,0.289,0.211
		c0.104,0.073,0.21,0.144,0.319,0.211c0.094,0.058,0.189,0.114,0.285,0.168c0.115,0.065,0.231,0.128,0.35,0.187
		c0.102,0.05,0.205,0.097,0.309,0.143c0.115,0.051,0.23,0.1,0.349,0.145c0.122,0.046,0.245,0.087,0.369,0.128
		c0.104,0.033,0.207,0.067,0.313,0.096c0.149,0.041,0.301,0.075,0.453,0.107c0.063,0.013,0.123,0.032,0.186,0.044
		c35.093,6.445,67.917,19.333,97.173,37.774c30.975,19.524,57.948,45.275,79.326,76.273
		c40.409,58.593,56.264,129.202,44.928,199.464c-14.298,0.469-27.02,2.525-38.758,5.662c-1.832-16.373-8.27-31.365-17.993-43.656
		v-72.313c0-4.142-3.357-7.5-7.5-7.5s-7.5,3.358-7.5,7.5v57.481c-4.648-3.591-9.67-6.717-15-9.309V200.326
		c0-4.142-3.357-7.5-7.5-7.5s-7.5,3.358-7.5,7.5v102.548c-4.847-1.315-9.856-2.232-15-2.678v-23.791c0-4.142-3.357-7.5-7.5-7.5
		c-4.144,0.001-7.5,3.359-7.5,7.5v30.967c0,4.142,3.357,7.5,7.5,7.5c37.487,0,68.266,29.189,70.853,66.03
		c-17.465,6.327-33.06,14.865-49.1,23.652c-42.1,23.061-89.688,49.119-190.169,50.389c2.072-38.951,19.932-68.873,38.78-100.438
		c13.591-22.761,27.643-46.296,37.243-74.953c1.316-3.927-0.802-8.178-4.729-9.494c-0.041-0.014-0.083-0.022-0.124-0.035
		c-3.896-1.232-8.068,0.877-9.37,4.764c-9.086,27.122-22.717,49.951-35.899,72.028c-21.139,35.403-41.104,68.842-41.104,115.681
		c0,4.142,3.357,7.5,7.5,7.5c109.627,0,162.553-28.991,205.079-52.287c31.521-17.267,58.745-32.179,101.626-32.179
		c3.619,0,6.723-2.585,7.377-6.145C471.173,303.196,454.734,226.227,410.889,162.653z"/>
	<path style="fill:#34150C;" d="M189.304,126.48h-35.368c-1.989,0-3.896,0.79-5.304,2.197l-36.347,36.346
		c-2.929,2.929-2.929,7.678,0,10.606c1.465,1.465,3.384,2.197,5.304,2.197c1.919,0,3.839-0.732,5.304-2.197l34.149-34.149h32.262
		c4.143,0,7.5-3.358,7.5-7.5C196.804,129.838,193.447,126.48,189.304,126.48z"/>
	<path style="fill:#34150C;" d="M326.718,246.406V122.471c0-4.142-3.357-7.5-7.5-7.5c-4.144,0.001-7.5,3.359-7.5,7.5v123.935
		c0,4.141,3.356,7.499,7.498,7.5C323.361,253.906,326.718,250.548,326.718,246.406z"/>
</g>
<g>
</g>
<g>
</g>
<g>
</g>
<g>
</g>
<g>
</g>
<g>
</g>
<g>
</g>
<g>
</g>
<g>
</g>
<g>
</g>
<g>
</g>
<g>
</g>
<g>
</g>
<g>
</g>
<g>
</g>
</svg>
