<?xml version="1.0" encoding="iso-8859-1"?>
<!-- Generator: Adobe Illustrator 19.0.0, SVG Export Plug-In . SVG Version: 6.00 Build 0)  -->
<svg version="1.1" id="Capa_1" xmlns="http://www.w3.org/2000/svg" xmlns:xlink="http://www.w3.org/1999/xlink" x="0px" y="0px"
	 viewBox="0 0 53.625 53.625" style="enable-background:new 0 0 53.625 53.625;" xml:space="preserve">
<g>
	<g>
		<path d="M47.14,16.86L42.142,0.704C42.012,0.285,41.625,0,41.187,0s-0.826,0.285-0.956,0.704l-2.356,7.618
			c-3.402-1.768-7.2-2.697-11.062-2.697c-3.949,0-7.822,0.969-11.279,2.811l-2.392-7.731C13.012,0.285,12.625,0,12.186,0
			s-0.826,0.285-0.955,0.704l-5.264,17.02c-2.064,3.608-3.154,7.721-3.154,11.901c0,13.233,10.767,24,24,24s24-10.767,24-24
			C50.813,25.092,49.543,20.681,47.14,16.86z M26.813,51.625c-12.131,0-22-9.869-22-22c0-3.868,1.018-7.671,2.942-10.998
			c0.038-0.065,0.067-0.134,0.09-0.205l4.342-14.038l1.804,5.831c0.091,0.294,0.312,0.529,0.6,0.639
			c0.287,0.109,0.609,0.08,0.873-0.078c3.415-2.062,7.339-3.15,11.35-3.15c3.927,0,7.781,1.048,11.147,3.029
			c0.264,0.155,0.584,0.183,0.868,0.071c0.285-0.11,0.504-0.345,0.595-0.637l1.764-5.705l4.082,13.195
			c0.026,0.085,0.064,0.166,0.112,0.241c2.245,3.524,3.432,7.607,3.432,11.805C48.813,41.756,38.943,51.625,26.813,51.625z"/>
		<path d="M22.823,35.636c-1.654,0-3,1.346-3,3s1.346,3,3,3s3-1.346,3-3S24.477,35.636,22.823,35.636z M22.823,39.636
			c-0.551,0-1-0.448-1-1s0.449-1,1-1s1,0.448,1,1S23.374,39.636,22.823,39.636z"/>
		<path d="M26.823,31.636c-6.065,0-11,3.813-11,8.5s4.935,8.5,11,8.5s11-3.813,11-8.5S32.888,31.636,26.823,31.636z M26.823,46.636
			c-4.962,0-9-2.916-9-6.5s4.038-6.5,9-6.5s9,2.916,9,6.5S31.785,46.636,26.823,46.636z"/>
		<circle cx="17.823" cy="25.636" r="2"/>
		<circle cx="35.823" cy="25.636" r="2"/>
		<path d="M30.823,35.636c-1.654,0-3,1.346-3,3s1.346,3,3,3s3-1.346,3-3S32.477,35.636,30.823,35.636z M30.823,39.636
			c-0.551,0-1-0.448-1-1s0.449-1,1-1s1,0.448,1,1S31.374,39.636,30.823,39.636z"/>
	</g>
</g>
<g>
</g>
<g>
</g>
<g>
</g>
<g>
</g>
<g>
</g>
<g>
</g>
<g>
</g>
<g>
</g>
<g>
</g>
<g>
</g>
<g>
</g>
<g>
</g>
<g>
</g>
<g>
</g>
<g>
</g>
</svg>
